<svg id="e0FJXjOGy5q1" xmlns="http://www.w3.org/2000/svg" xmlns:xlink="http://www.w3.org/1999/xlink" viewBox="0 0 330 330" shape-rendering="geometricPrecision" text-rendering="geometricPrecision"><path d="M315,0L15,0C6.716,0,0,6.716,0,15v300c0,8.284,6.716,15,15,15h300c8.284,0,15-6.716,15-15v-300c0-8.284-6.716-15-15-15ZM255.606,135.606l-79.998,80c-2.813,2.813-6.628,4.394-10.606,4.394-3.979,0-7.793-1.58-10.607-4.394l-80.002-80c-5.858-5.857-5.858-15.355,0-21.213c5.857-5.858,15.355-5.858,21.213,0l69.396,69.393l69.392-69.393c5.857-5.858,15.355-5.858,21.213,0s5.858,15.356-.001,21.213Z" transform="matrix(-1 0 0 1 330 0)" fill="#448d50" stroke="#000"/></svg>
